<svg xmlns="http://www.w3.org/2000/svg" viewBox="0 0 840 336" width="840" height="336" fill="none" role="img" aria-label="Dotted world map">
<circle cx="91" cy="49" r="1.7" fill="#a78bfa" opacity="0.55"/>
<circle cx="105" cy="49" r="1.7" fill="#a78bfa" opacity="0.55"/>
<circle cx="119" cy="49" r="1.7" fill="#a78bfa" opacity="0.55"/>
<circle cx="133" cy="49" r="1.7" fill="#a78bfa" opacity="0.55"/>
<circle cx="147" cy="49" r="1.7" fill="#a78bfa" opacity="0.55"/>
<circle cx="161" cy="49" r="1.7" fill="#a78bfa" opacity="0.55"/>
<circle cx="175" cy="49" r="1.7" fill="#a78bfa" opacity="0.55"/>
<circle cx="189" cy="49" r="1.7" fill="#a78bfa" opacity="0.55"/>
<circle cx="203" cy="49" r="1.7" fill="#a78bfa" opacity="0.55"/>
<circle cx="217" cy="49" r="1.7" fill="#a78bfa" opacity="0.55"/>
<circle cx="231" cy="49" r="1.7" fill="#a78bfa" opacity="0.55"/>
<circle cx="343" cy="49" r="1.7" fill="#a78bfa" opacity="0.55"/>
<circle cx="357" cy="49" r="1.7" fill="#a78bfa" opacity="0.55"/>
<circle cx="371" cy="49" r="1.7" fill="#a78bfa" opacity="0.55"/>
<circle cx="441" cy="49" r="1.7" fill="#a78bfa" opacity="0.55"/>
<circle cx="455" cy="49" r="1.7" fill="#a78bfa" opacity="0.55"/>
<circle cx="469" cy="49" r="1.7" fill="#a78bfa" opacity="0.55"/>
<circle cx="539" cy="49" r="1.7" fill="#a78bfa" opacity="0.55"/>
<circle cx="553" cy="49" r="1.7" fill="#a78bfa" opacity="0.55"/>
<circle cx="567" cy="49" r="1.7" fill="#a78bfa" opacity="0.55"/>
<circle cx="581" cy="49" r="1.7" fill="#a78bfa" opacity="0.55"/>
<circle cx="595" cy="49" r="1.7" fill="#a78bfa" opacity="0.55"/>
<circle cx="609" cy="49" r="1.7" fill="#a78bfa" opacity="0.55"/>
<circle cx="623" cy="49" r="1.7" fill="#a78bfa" opacity="0.55"/>
<circle cx="637" cy="49" r="1.7" fill="#a78bfa" opacity="0.55"/>
<circle cx="651" cy="49" r="1.7" fill="#a78bfa" opacity="0.55"/>
<circle cx="665" cy="49" r="1.7" fill="#a78bfa" opacity="0.55"/>
<circle cx="679" cy="49" r="1.7" fill="#a78bfa" opacity="0.55"/>
<circle cx="693" cy="49" r="1.7" fill="#a78bfa" opacity="0.55"/>
<circle cx="707" cy="49" r="1.7" fill="#a78bfa" opacity="0.55"/>
<circle cx="721" cy="49" r="1.7" fill="#a78bfa" opacity="0.55"/>
<circle cx="735" cy="49" r="1.7" fill="#a78bfa" opacity="0.55"/>
<circle cx="749" cy="49" r="1.7" fill="#a78bfa" opacity="0.55"/>
<circle cx="763" cy="49" r="1.7" fill="#a78bfa" opacity="0.55"/>
<circle cx="777" cy="49" r="1.7" fill="#a78bfa" opacity="0.55"/>
<circle cx="791" cy="49" r="1.7" fill="#a78bfa" opacity="0.55"/>
<circle cx="805" cy="49" r="1.7" fill="#a78bfa" opacity="0.55"/>
<circle cx="819" cy="49" r="1.7" fill="#a78bfa" opacity="0.55"/>
<circle cx="833" cy="49" r="1.7" fill="#a78bfa" opacity="0.55"/>
<circle cx="91" cy="63" r="1.7" fill="#a78bfa" opacity="0.55"/>
<circle cx="105" cy="63" r="1.7" fill="#a78bfa" opacity="0.55"/>
<circle cx="119" cy="63" r="1.7" fill="#a78bfa" opacity="0.55"/>
<circle cx="133" cy="63" r="1.7" fill="#a78bfa" opacity="0.55"/>
<circle cx="147" cy="63" r="1.7" fill="#a78bfa" opacity="0.55"/>
<circle cx="161" cy="63" r="1.7" fill="#a78bfa" opacity="0.55"/>
<circle cx="175" cy="63" r="1.7" fill="#a78bfa" opacity="0.55"/>
<circle cx="189" cy="63" r="1.7" fill="#a78bfa" opacity="0.55"/>
<circle cx="203" cy="63" r="1.7" fill="#a78bfa" opacity="0.55"/>
<circle cx="217" cy="63" r="1.7" fill="#a78bfa" opacity="0.55"/>
<circle cx="231" cy="63" r="1.7" fill="#a78bfa" opacity="0.55"/>
<circle cx="245" cy="63" r="1.7" fill="#a78bfa" opacity="0.55"/>
<circle cx="343" cy="63" r="1.7" fill="#a78bfa" opacity="0.55"/>
<circle cx="357" cy="63" r="1.7" fill="#a78bfa" opacity="0.55"/>
<circle cx="371" cy="63" r="1.7" fill="#a78bfa" opacity="0.55"/>
<circle cx="427" cy="63" r="1.7" fill="#a78bfa" opacity="0.55"/>
<circle cx="441" cy="63" r="1.7" fill="#a78bfa" opacity="0.55"/>
<circle cx="455" cy="63" r="1.7" fill="#a78bfa" opacity="0.55"/>
<circle cx="469" cy="63" r="1.7" fill="#a78bfa" opacity="0.55"/>
<circle cx="483" cy="63" r="1.7" fill="#a78bfa" opacity="0.55"/>
<circle cx="497" cy="63" r="1.7" fill="#a78bfa" opacity="0.55"/>
<circle cx="511" cy="63" r="1.7" fill="#a78bfa" opacity="0.55"/>
<circle cx="525" cy="63" r="1.7" fill="#a78bfa" opacity="0.55"/>
<circle cx="539" cy="63" r="1.7" fill="#a78bfa" opacity="0.55"/>
<circle cx="553" cy="63" r="1.7" fill="#a78bfa" opacity="0.55"/>
<circle cx="567" cy="63" r="1.7" fill="#a78bfa" opacity="0.55"/>
<circle cx="581" cy="63" r="1.7" fill="#a78bfa" opacity="0.55"/>
<circle cx="595" cy="63" r="1.7" fill="#a78bfa" opacity="0.55"/>
<circle cx="609" cy="63" r="1.7" fill="#a78bfa" opacity="0.55"/>
<circle cx="623" cy="63" r="1.7" fill="#a78bfa" opacity="0.55"/>
<circle cx="637" cy="63" r="1.7" fill="#a78bfa" opacity="0.55"/>
<circle cx="651" cy="63" r="1.7" fill="#a78bfa" opacity="0.55"/>
<circle cx="665" cy="63" r="1.7" fill="#a78bfa" opacity="0.55"/>
<circle cx="679" cy="63" r="1.7" fill="#a78bfa" opacity="0.55"/>
<circle cx="693" cy="63" r="1.7" fill="#a78bfa" opacity="0.55"/>
<circle cx="707" cy="63" r="1.7" fill="#a78bfa" opacity="0.55"/>
<circle cx="721" cy="63" r="1.7" fill="#a78bfa" opacity="0.55"/>
<circle cx="735" cy="63" r="1.7" fill="#a78bfa" opacity="0.55"/>
<circle cx="749" cy="63" r="1.7" fill="#a78bfa" opacity="0.55"/>
<circle cx="763" cy="63" r="1.7" fill="#a78bfa" opacity="0.55"/>
<circle cx="777" cy="63" r="1.7" fill="#a78bfa" opacity="0.55"/>
<circle cx="791" cy="63" r="1.7" fill="#a78bfa" opacity="0.55"/>
<circle cx="805" cy="63" r="1.7" fill="#a78bfa" opacity="0.55"/>
<circle cx="819" cy="63" r="1.7" fill="#a78bfa" opacity="0.55"/>
<circle cx="833" cy="63" r="1.7" fill="#a78bfa" opacity="0.55"/>
<circle cx="105" cy="77" r="1.7" fill="#a78bfa" opacity="0.55"/>
<circle cx="119" cy="77" r="1.7" fill="#a78bfa" opacity="0.55"/>
<circle cx="133" cy="77" r="1.7" fill="#a78bfa" opacity="0.55"/>
<circle cx="147" cy="77" r="1.7" fill="#a78bfa" opacity="0.55"/>
<circle cx="161" cy="77" r="1.7" fill="#a78bfa" opacity="0.55"/>
<circle cx="175" cy="77" r="1.7" fill="#a78bfa" opacity="0.55"/>
<circle cx="189" cy="77" r="1.7" fill="#a78bfa" opacity="0.55"/>
<circle cx="203" cy="77" r="1.7" fill="#a78bfa" opacity="0.55"/>
<circle cx="217" cy="77" r="1.7" fill="#a78bfa" opacity="0.55"/>
<circle cx="231" cy="77" r="1.7" fill="#a78bfa" opacity="0.55"/>
<circle cx="245" cy="77" r="1.7" fill="#a78bfa" opacity="0.55"/>
<circle cx="413" cy="77" r="1.7" fill="#a78bfa" opacity="0.55"/>
<circle cx="427" cy="77" r="1.7" fill="#a78bfa" opacity="0.55"/>
<circle cx="441" cy="77" r="1.7" fill="#a78bfa" opacity="0.55"/>
<circle cx="455" cy="77" r="1.7" fill="#a78bfa" opacity="0.55"/>
<circle cx="469" cy="77" r="1.7" fill="#a78bfa" opacity="0.55"/>
<circle cx="483" cy="77" r="1.7" fill="#a78bfa" opacity="0.55"/>
<circle cx="497" cy="77" r="1.7" fill="#a78bfa" opacity="0.55"/>
<circle cx="511" cy="77" r="1.7" fill="#a78bfa" opacity="0.55"/>
<circle cx="525" cy="77" r="1.7" fill="#a78bfa" opacity="0.55"/>
<circle cx="539" cy="77" r="1.7" fill="#a78bfa" opacity="0.55"/>
<circle cx="553" cy="77" r="1.7" fill="#a78bfa" opacity="0.55"/>
<circle cx="567" cy="77" r="1.7" fill="#a78bfa" opacity="0.55"/>
<circle cx="581" cy="77" r="1.7" fill="#a78bfa" opacity="0.55"/>
<circle cx="595" cy="77" r="1.7" fill="#a78bfa" opacity="0.55"/>
<circle cx="609" cy="77" r="1.7" fill="#a78bfa" opacity="0.55"/>
<circle cx="623" cy="77" r="1.7" fill="#a78bfa" opacity="0.55"/>
<circle cx="637" cy="77" r="1.7" fill="#a78bfa" opacity="0.55"/>
<circle cx="651" cy="77" r="1.7" fill="#a78bfa" opacity="0.55"/>
<circle cx="665" cy="77" r="1.7" fill="#a78bfa" opacity="0.55"/>
<circle cx="679" cy="77" r="1.7" fill="#a78bfa" opacity="0.55"/>
<circle cx="693" cy="77" r="1.7" fill="#a78bfa" opacity="0.55"/>
<circle cx="707" cy="77" r="1.7" fill="#a78bfa" opacity="0.55"/>
<circle cx="721" cy="77" r="1.7" fill="#a78bfa" opacity="0.55"/>
<circle cx="735" cy="77" r="1.7" fill="#a78bfa" opacity="0.55"/>
<circle cx="749" cy="77" r="1.7" fill="#a78bfa" opacity="0.55"/>
<circle cx="763" cy="77" r="1.7" fill="#a78bfa" opacity="0.55"/>
<circle cx="777" cy="77" r="1.7" fill="#a78bfa" opacity="0.55"/>
<circle cx="791" cy="77" r="1.7" fill="#a78bfa" opacity="0.55"/>
<circle cx="805" cy="77" r="1.7" fill="#a78bfa" opacity="0.55"/>
<circle cx="819" cy="77" r="1.7" fill="#a78bfa" opacity="0.55"/>
<circle cx="833" cy="77" r="1.7" fill="#a78bfa" opacity="0.55"/>
<circle cx="105" cy="91" r="1.7" fill="#a78bfa" opacity="0.55"/>
<circle cx="119" cy="91" r="1.7" fill="#a78bfa" opacity="0.55"/>
<circle cx="133" cy="91" r="1.7" fill="#a78bfa" opacity="0.55"/>
<circle cx="147" cy="91" r="1.7" fill="#a78bfa" opacity="0.55"/>
<circle cx="161" cy="91" r="1.7" fill="#a78bfa" opacity="0.55"/>
<circle cx="175" cy="91" r="1.7" fill="#a78bfa" opacity="0.55"/>
<circle cx="189" cy="91" r="1.7" fill="#a78bfa" opacity="0.55"/>
<circle cx="203" cy="91" r="1.7" fill="#a78bfa" opacity="0.55"/>
<circle cx="217" cy="91" r="1.7" fill="#a78bfa" opacity="0.55"/>
<circle cx="231" cy="91" r="1.7" fill="#a78bfa" opacity="0.55"/>
<circle cx="245" cy="91" r="1.7" fill="#a78bfa" opacity="0.55"/>
<circle cx="413" cy="91" r="1.7" fill="#a78bfa" opacity="0.55"/>
<circle cx="427" cy="91" r="1.7" fill="#a78bfa" opacity="0.55"/>
<circle cx="441" cy="91" r="1.7" fill="#a78bfa" opacity="0.55"/>
<circle cx="455" cy="91" r="1.7" fill="#a78bfa" opacity="0.55"/>
<circle cx="469" cy="91" r="1.7" fill="#a78bfa" opacity="0.55"/>
<circle cx="483" cy="91" r="1.7" fill="#a78bfa" opacity="0.55"/>
<circle cx="497" cy="91" r="1.7" fill="#a78bfa" opacity="0.55"/>
<circle cx="511" cy="91" r="1.7" fill="#a78bfa" opacity="0.55"/>
<circle cx="525" cy="91" r="1.7" fill="#a78bfa" opacity="0.55"/>
<circle cx="539" cy="91" r="1.7" fill="#a78bfa" opacity="0.55"/>
<circle cx="553" cy="91" r="1.7" fill="#a78bfa" opacity="0.55"/>
<circle cx="567" cy="91" r="1.7" fill="#a78bfa" opacity="0.55"/>
<circle cx="581" cy="91" r="1.7" fill="#a78bfa" opacity="0.55"/>
<circle cx="595" cy="91" r="1.7" fill="#a78bfa" opacity="0.55"/>
<circle cx="609" cy="91" r="1.7" fill="#a78bfa" opacity="0.55"/>
<circle cx="623" cy="91" r="1.7" fill="#a78bfa" opacity="0.55"/>
<circle cx="637" cy="91" r="1.7" fill="#a78bfa" opacity="0.55"/>
<circle cx="651" cy="91" r="1.7" fill="#a78bfa" opacity="0.55"/>
<circle cx="665" cy="91" r="1.7" fill="#a78bfa" opacity="0.55"/>
<circle cx="679" cy="91" r="1.7" fill="#a78bfa" opacity="0.55"/>
<circle cx="693" cy="91" r="1.7" fill="#a78bfa" opacity="0.55"/>
<circle cx="707" cy="91" r="1.7" fill="#a78bfa" opacity="0.55"/>
<circle cx="721" cy="91" r="1.7" fill="#a78bfa" opacity="0.55"/>
<circle cx="735" cy="91" r="1.7" fill="#a78bfa" opacity="0.55"/>
<circle cx="749" cy="91" r="1.7" fill="#a78bfa" opacity="0.55"/>
<circle cx="763" cy="91" r="1.7" fill="#a78bfa" opacity="0.55"/>
<circle cx="777" cy="91" r="1.7" fill="#a78bfa" opacity="0.55"/>
<circle cx="791" cy="91" r="1.7" fill="#a78bfa" opacity="0.55"/>
<circle cx="119" cy="105" r="1.7" fill="#a78bfa" opacity="0.55"/>
<circle cx="133" cy="105" r="1.7" fill="#a78bfa" opacity="0.55"/>
<circle cx="147" cy="105" r="1.7" fill="#a78bfa" opacity="0.55"/>
<circle cx="161" cy="105" r="1.7" fill="#a78bfa" opacity="0.55"/>
<circle cx="175" cy="105" r="1.7" fill="#a78bfa" opacity="0.55"/>
<circle cx="189" cy="105" r="1.7" fill="#a78bfa" opacity="0.55"/>
<circle cx="203" cy="105" r="1.7" fill="#a78bfa" opacity="0.55"/>
<circle cx="217" cy="105" r="1.7" fill="#a78bfa" opacity="0.55"/>
<circle cx="231" cy="105" r="1.7" fill="#a78bfa" opacity="0.55"/>
<circle cx="245" cy="105" r="1.7" fill="#a78bfa" opacity="0.55"/>
<circle cx="427" cy="105" r="1.7" fill="#a78bfa" opacity="0.55"/>
<circle cx="441" cy="105" r="1.7" fill="#a78bfa" opacity="0.55"/>
<circle cx="455" cy="105" r="1.7" fill="#a78bfa" opacity="0.55"/>
<circle cx="469" cy="105" r="1.7" fill="#a78bfa" opacity="0.55"/>
<circle cx="483" cy="105" r="1.7" fill="#a78bfa" opacity="0.55"/>
<circle cx="497" cy="105" r="1.7" fill="#a78bfa" opacity="0.55"/>
<circle cx="511" cy="105" r="1.7" fill="#a78bfa" opacity="0.55"/>
<circle cx="525" cy="105" r="1.7" fill="#a78bfa" opacity="0.55"/>
<circle cx="539" cy="105" r="1.7" fill="#a78bfa" opacity="0.55"/>
<circle cx="553" cy="105" r="1.7" fill="#a78bfa" opacity="0.55"/>
<circle cx="567" cy="105" r="1.7" fill="#a78bfa" opacity="0.55"/>
<circle cx="581" cy="105" r="1.7" fill="#a78bfa" opacity="0.55"/>
<circle cx="595" cy="105" r="1.7" fill="#a78bfa" opacity="0.55"/>
<circle cx="609" cy="105" r="1.7" fill="#a78bfa" opacity="0.55"/>
<circle cx="623" cy="105" r="1.7" fill="#a78bfa" opacity="0.55"/>
<circle cx="637" cy="105" r="1.7" fill="#a78bfa" opacity="0.55"/>
<circle cx="651" cy="105" r="1.7" fill="#a78bfa" opacity="0.55"/>
<circle cx="665" cy="105" r="1.7" fill="#a78bfa" opacity="0.55"/>
<circle cx="679" cy="105" r="1.7" fill="#a78bfa" opacity="0.55"/>
<circle cx="693" cy="105" r="1.7" fill="#a78bfa" opacity="0.55"/>
<circle cx="707" cy="105" r="1.7" fill="#a78bfa" opacity="0.55"/>
<circle cx="721" cy="105" r="1.7" fill="#a78bfa" opacity="0.55"/>
<circle cx="735" cy="105" r="1.7" fill="#a78bfa" opacity="0.55"/>
<circle cx="749" cy="105" r="1.7" fill="#a78bfa" opacity="0.55"/>
<circle cx="763" cy="105" r="1.7" fill="#a78bfa" opacity="0.55"/>
<circle cx="119" cy="119" r="1.7" fill="#a78bfa" opacity="0.55"/>
<circle cx="133" cy="119" r="1.7" fill="#a78bfa" opacity="0.55"/>
<circle cx="147" cy="119" r="1.7" fill="#a78bfa" opacity="0.55"/>
<circle cx="161" cy="119" r="1.7" fill="#a78bfa" opacity="0.55"/>
<circle cx="175" cy="119" r="1.7" fill="#a78bfa" opacity="0.55"/>
<circle cx="189" cy="119" r="1.7" fill="#a78bfa" opacity="0.55"/>
<circle cx="203" cy="119" r="1.7" fill="#a78bfa" opacity="0.55"/>
<circle cx="217" cy="119" r="1.7" fill="#a78bfa" opacity="0.55"/>
<circle cx="231" cy="119" r="1.7" fill="#a78bfa" opacity="0.55"/>
<circle cx="441" cy="119" r="1.7" fill="#a78bfa" opacity="0.55"/>
<circle cx="455" cy="119" r="1.7" fill="#a78bfa" opacity="0.55"/>
<circle cx="469" cy="119" r="1.7" fill="#a78bfa" opacity="0.55"/>
<circle cx="483" cy="119" r="1.7" fill="#a78bfa" opacity="0.55"/>
<circle cx="497" cy="119" r="1.7" fill="#a78bfa" opacity="0.55"/>
<circle cx="511" cy="119" r="1.7" fill="#a78bfa" opacity="0.55"/>
<circle cx="525" cy="119" r="1.7" fill="#a78bfa" opacity="0.55"/>
<circle cx="539" cy="119" r="1.7" fill="#a78bfa" opacity="0.55"/>
<circle cx="553" cy="119" r="1.7" fill="#a78bfa" opacity="0.55"/>
<circle cx="567" cy="119" r="1.7" fill="#a78bfa" opacity="0.55"/>
<circle cx="581" cy="119" r="1.7" fill="#a78bfa" opacity="0.55"/>
<circle cx="595" cy="119" r="1.7" fill="#a78bfa" opacity="0.55"/>
<circle cx="609" cy="119" r="1.7" fill="#a78bfa" opacity="0.55"/>
<circle cx="623" cy="119" r="1.7" fill="#a78bfa" opacity="0.55"/>
<circle cx="637" cy="119" r="1.7" fill="#a78bfa" opacity="0.55"/>
<circle cx="651" cy="119" r="1.7" fill="#a78bfa" opacity="0.55"/>
<circle cx="665" cy="119" r="1.7" fill="#a78bfa" opacity="0.55"/>
<circle cx="679" cy="119" r="1.7" fill="#a78bfa" opacity="0.55"/>
<circle cx="693" cy="119" r="1.7" fill="#a78bfa" opacity="0.55"/>
<circle cx="707" cy="119" r="1.7" fill="#a78bfa" opacity="0.55"/>
<circle cx="721" cy="119" r="1.7" fill="#a78bfa" opacity="0.55"/>
<circle cx="735" cy="119" r="1.7" fill="#a78bfa" opacity="0.55"/>
<circle cx="749" cy="119" r="1.7" fill="#a78bfa" opacity="0.55"/>
<circle cx="133" cy="133" r="1.7" fill="#a78bfa" opacity="0.55"/>
<circle cx="147" cy="133" r="1.7" fill="#a78bfa" opacity="0.55"/>
<circle cx="161" cy="133" r="1.7" fill="#a78bfa" opacity="0.55"/>
<circle cx="175" cy="133" r="1.7" fill="#a78bfa" opacity="0.55"/>
<circle cx="189" cy="133" r="1.7" fill="#a78bfa" opacity="0.55"/>
<circle cx="203" cy="133" r="1.7" fill="#a78bfa" opacity="0.55"/>
<circle cx="217" cy="133" r="1.7" fill="#a78bfa" opacity="0.55"/>
<circle cx="231" cy="133" r="1.7" fill="#a78bfa" opacity="0.55"/>
<circle cx="427" cy="133" r="1.7" fill="#a78bfa" opacity="0.55"/>
<circle cx="441" cy="133" r="1.7" fill="#a78bfa" opacity="0.55"/>
<circle cx="455" cy="133" r="1.7" fill="#a78bfa" opacity="0.55"/>
<circle cx="469" cy="133" r="1.7" fill="#a78bfa" opacity="0.55"/>
<circle cx="483" cy="133" r="1.7" fill="#a78bfa" opacity="0.55"/>
<circle cx="497" cy="133" r="1.7" fill="#a78bfa" opacity="0.55"/>
<circle cx="511" cy="133" r="1.7" fill="#a78bfa" opacity="0.55"/>
<circle cx="525" cy="133" r="1.7" fill="#a78bfa" opacity="0.55"/>
<circle cx="539" cy="133" r="1.7" fill="#a78bfa" opacity="0.55"/>
<circle cx="553" cy="133" r="1.7" fill="#a78bfa" opacity="0.55"/>
<circle cx="567" cy="133" r="1.7" fill="#a78bfa" opacity="0.55"/>
<circle cx="595" cy="133" r="1.7" fill="#a78bfa" opacity="0.55"/>
<circle cx="609" cy="133" r="1.7" fill="#a78bfa" opacity="0.55"/>
<circle cx="623" cy="133" r="1.7" fill="#a78bfa" opacity="0.55"/>
<circle cx="637" cy="133" r="1.7" fill="#a78bfa" opacity="0.55"/>
<circle cx="651" cy="133" r="1.7" fill="#a78bfa" opacity="0.55"/>
<circle cx="665" cy="133" r="1.7" fill="#a78bfa" opacity="0.55"/>
<circle cx="679" cy="133" r="1.7" fill="#a78bfa" opacity="0.55"/>
<circle cx="693" cy="133" r="1.7" fill="#a78bfa" opacity="0.55"/>
<circle cx="707" cy="133" r="1.7" fill="#a78bfa" opacity="0.55"/>
<circle cx="721" cy="133" r="1.7" fill="#a78bfa" opacity="0.55"/>
<circle cx="749" cy="133" r="1.7" fill="#a78bfa" opacity="0.55"/>
<circle cx="161" cy="147" r="1.7" fill="#a78bfa" opacity="0.55"/>
<circle cx="175" cy="147" r="1.7" fill="#a78bfa" opacity="0.55"/>
<circle cx="189" cy="147" r="1.7" fill="#a78bfa" opacity="0.55"/>
<circle cx="203" cy="147" r="1.7" fill="#a78bfa" opacity="0.55"/>
<circle cx="217" cy="147" r="1.7" fill="#a78bfa" opacity="0.55"/>
<circle cx="413" cy="147" r="1.7" fill="#a78bfa" opacity="0.55"/>
<circle cx="427" cy="147" r="1.7" fill="#a78bfa" opacity="0.55"/>
<circle cx="441" cy="147" r="1.7" fill="#a78bfa" opacity="0.55"/>
<circle cx="455" cy="147" r="1.7" fill="#a78bfa" opacity="0.55"/>
<circle cx="469" cy="147" r="1.7" fill="#a78bfa" opacity="0.55"/>
<circle cx="483" cy="147" r="1.7" fill="#a78bfa" opacity="0.55"/>
<circle cx="497" cy="147" r="1.7" fill="#a78bfa" opacity="0.55"/>
<circle cx="511" cy="147" r="1.7" fill="#a78bfa" opacity="0.55"/>
<circle cx="525" cy="147" r="1.7" fill="#a78bfa" opacity="0.55"/>
<circle cx="539" cy="147" r="1.7" fill="#a78bfa" opacity="0.55"/>
<circle cx="553" cy="147" r="1.7" fill="#a78bfa" opacity="0.55"/>
<circle cx="567" cy="147" r="1.7" fill="#a78bfa" opacity="0.55"/>
<circle cx="595" cy="147" r="1.7" fill="#a78bfa" opacity="0.55"/>
<circle cx="609" cy="147" r="1.7" fill="#a78bfa" opacity="0.55"/>
<circle cx="623" cy="147" r="1.7" fill="#a78bfa" opacity="0.55"/>
<circle cx="651" cy="147" r="1.7" fill="#a78bfa" opacity="0.55"/>
<circle cx="665" cy="147" r="1.7" fill="#a78bfa" opacity="0.55"/>
<circle cx="679" cy="147" r="1.7" fill="#a78bfa" opacity="0.55"/>
<circle cx="693" cy="147" r="1.7" fill="#a78bfa" opacity="0.55"/>
<circle cx="707" cy="147" r="1.7" fill="#a78bfa" opacity="0.55"/>
<circle cx="175" cy="161" r="1.7" fill="#a78bfa" opacity="0.55"/>
<circle cx="189" cy="161" r="1.7" fill="#a78bfa" opacity="0.55"/>
<circle cx="203" cy="161" r="1.7" fill="#a78bfa" opacity="0.55"/>
<circle cx="217" cy="161" r="1.7" fill="#a78bfa" opacity="0.55"/>
<circle cx="413" cy="161" r="1.7" fill="#a78bfa" opacity="0.55"/>
<circle cx="427" cy="161" r="1.7" fill="#a78bfa" opacity="0.55"/>
<circle cx="441" cy="161" r="1.7" fill="#a78bfa" opacity="0.55"/>
<circle cx="455" cy="161" r="1.7" fill="#a78bfa" opacity="0.55"/>
<circle cx="469" cy="161" r="1.7" fill="#a78bfa" opacity="0.55"/>
<circle cx="483" cy="161" r="1.7" fill="#a78bfa" opacity="0.55"/>
<circle cx="497" cy="161" r="1.7" fill="#a78bfa" opacity="0.55"/>
<circle cx="511" cy="161" r="1.7" fill="#a78bfa" opacity="0.55"/>
<circle cx="525" cy="161" r="1.7" fill="#a78bfa" opacity="0.55"/>
<circle cx="539" cy="161" r="1.7" fill="#a78bfa" opacity="0.55"/>
<circle cx="553" cy="161" r="1.7" fill="#a78bfa" opacity="0.55"/>
<circle cx="567" cy="161" r="1.7" fill="#a78bfa" opacity="0.55"/>
<circle cx="595" cy="161" r="1.7" fill="#a78bfa" opacity="0.55"/>
<circle cx="609" cy="161" r="1.7" fill="#a78bfa" opacity="0.55"/>
<circle cx="623" cy="161" r="1.7" fill="#a78bfa" opacity="0.55"/>
<circle cx="651" cy="161" r="1.7" fill="#a78bfa" opacity="0.55"/>
<circle cx="665" cy="161" r="1.7" fill="#a78bfa" opacity="0.55"/>
<circle cx="679" cy="161" r="1.7" fill="#a78bfa" opacity="0.55"/>
<circle cx="693" cy="161" r="1.7" fill="#a78bfa" opacity="0.55"/>
<circle cx="203" cy="175" r="1.7" fill="#a78bfa" opacity="0.55"/>
<circle cx="217" cy="175" r="1.7" fill="#a78bfa" opacity="0.55"/>
<circle cx="231" cy="175" r="1.7" fill="#a78bfa" opacity="0.55"/>
<circle cx="413" cy="175" r="1.7" fill="#a78bfa" opacity="0.55"/>
<circle cx="427" cy="175" r="1.7" fill="#a78bfa" opacity="0.55"/>
<circle cx="441" cy="175" r="1.7" fill="#a78bfa" opacity="0.55"/>
<circle cx="455" cy="175" r="1.7" fill="#a78bfa" opacity="0.55"/>
<circle cx="469" cy="175" r="1.7" fill="#a78bfa" opacity="0.55"/>
<circle cx="483" cy="175" r="1.7" fill="#a78bfa" opacity="0.55"/>
<circle cx="497" cy="175" r="1.7" fill="#a78bfa" opacity="0.55"/>
<circle cx="511" cy="175" r="1.7" fill="#a78bfa" opacity="0.55"/>
<circle cx="525" cy="175" r="1.7" fill="#a78bfa" opacity="0.55"/>
<circle cx="539" cy="175" r="1.7" fill="#a78bfa" opacity="0.55"/>
<circle cx="553" cy="175" r="1.7" fill="#a78bfa" opacity="0.55"/>
<circle cx="567" cy="175" r="1.7" fill="#a78bfa" opacity="0.55"/>
<circle cx="609" cy="175" r="1.7" fill="#a78bfa" opacity="0.55"/>
<circle cx="651" cy="175" r="1.7" fill="#a78bfa" opacity="0.55"/>
<circle cx="665" cy="175" r="1.7" fill="#a78bfa" opacity="0.55"/>
<circle cx="679" cy="175" r="1.7" fill="#a78bfa" opacity="0.55"/>
<circle cx="693" cy="175" r="1.7" fill="#a78bfa" opacity="0.55"/>
<circle cx="707" cy="175" r="1.7" fill="#a78bfa" opacity="0.55"/>
<circle cx="217" cy="189" r="1.7" fill="#a78bfa" opacity="0.55"/>
<circle cx="231" cy="189" r="1.7" fill="#a78bfa" opacity="0.55"/>
<circle cx="399" cy="189" r="1.7" fill="#a78bfa" opacity="0.55"/>
<circle cx="413" cy="189" r="1.7" fill="#a78bfa" opacity="0.55"/>
<circle cx="427" cy="189" r="1.7" fill="#a78bfa" opacity="0.55"/>
<circle cx="441" cy="189" r="1.7" fill="#a78bfa" opacity="0.55"/>
<circle cx="455" cy="189" r="1.7" fill="#a78bfa" opacity="0.55"/>
<circle cx="469" cy="189" r="1.7" fill="#a78bfa" opacity="0.55"/>
<circle cx="483" cy="189" r="1.7" fill="#a78bfa" opacity="0.55"/>
<circle cx="497" cy="189" r="1.7" fill="#a78bfa" opacity="0.55"/>
<circle cx="511" cy="189" r="1.7" fill="#a78bfa" opacity="0.55"/>
<circle cx="525" cy="189" r="1.7" fill="#a78bfa" opacity="0.55"/>
<circle cx="539" cy="189" r="1.7" fill="#a78bfa" opacity="0.55"/>
<circle cx="553" cy="189" r="1.7" fill="#a78bfa" opacity="0.55"/>
<circle cx="665" cy="189" r="1.7" fill="#a78bfa" opacity="0.55"/>
<circle cx="679" cy="189" r="1.7" fill="#a78bfa" opacity="0.55"/>
<circle cx="693" cy="189" r="1.7" fill="#a78bfa" opacity="0.55"/>
<circle cx="273" cy="203" r="1.7" fill="#a78bfa" opacity="0.55"/>
<circle cx="287" cy="203" r="1.7" fill="#a78bfa" opacity="0.55"/>
<circle cx="301" cy="203" r="1.7" fill="#a78bfa" opacity="0.55"/>
<circle cx="315" cy="203" r="1.7" fill="#a78bfa" opacity="0.55"/>
<circle cx="329" cy="203" r="1.7" fill="#a78bfa" opacity="0.55"/>
<circle cx="441" cy="203" r="1.7" fill="#a78bfa" opacity="0.55"/>
<circle cx="455" cy="203" r="1.7" fill="#a78bfa" opacity="0.55"/>
<circle cx="469" cy="203" r="1.7" fill="#a78bfa" opacity="0.55"/>
<circle cx="483" cy="203" r="1.7" fill="#a78bfa" opacity="0.55"/>
<circle cx="497" cy="203" r="1.7" fill="#a78bfa" opacity="0.55"/>
<circle cx="511" cy="203" r="1.7" fill="#a78bfa" opacity="0.55"/>
<circle cx="525" cy="203" r="1.7" fill="#a78bfa" opacity="0.55"/>
<circle cx="539" cy="203" r="1.7" fill="#a78bfa" opacity="0.55"/>
<circle cx="553" cy="203" r="1.7" fill="#a78bfa" opacity="0.55"/>
<circle cx="567" cy="203" r="1.7" fill="#a78bfa" opacity="0.55"/>
<circle cx="651" cy="203" r="1.7" fill="#a78bfa" opacity="0.55"/>
<circle cx="665" cy="203" r="1.7" fill="#a78bfa" opacity="0.55"/>
<circle cx="679" cy="203" r="1.7" fill="#a78bfa" opacity="0.55"/>
<circle cx="693" cy="203" r="1.7" fill="#a78bfa" opacity="0.55"/>
<circle cx="707" cy="203" r="1.7" fill="#a78bfa" opacity="0.55"/>
<circle cx="721" cy="203" r="1.7" fill="#a78bfa" opacity="0.55"/>
<circle cx="273" cy="217" r="1.7" fill="#a78bfa" opacity="0.55"/>
<circle cx="287" cy="217" r="1.7" fill="#a78bfa" opacity="0.55"/>
<circle cx="301" cy="217" r="1.7" fill="#a78bfa" opacity="0.55"/>
<circle cx="315" cy="217" r="1.7" fill="#a78bfa" opacity="0.55"/>
<circle cx="329" cy="217" r="1.7" fill="#a78bfa" opacity="0.55"/>
<circle cx="343" cy="217" r="1.7" fill="#a78bfa" opacity="0.55"/>
<circle cx="455" cy="217" r="1.7" fill="#a78bfa" opacity="0.55"/>
<circle cx="469" cy="217" r="1.7" fill="#a78bfa" opacity="0.55"/>
<circle cx="483" cy="217" r="1.7" fill="#a78bfa" opacity="0.55"/>
<circle cx="497" cy="217" r="1.7" fill="#a78bfa" opacity="0.55"/>
<circle cx="511" cy="217" r="1.7" fill="#a78bfa" opacity="0.55"/>
<circle cx="525" cy="217" r="1.7" fill="#a78bfa" opacity="0.55"/>
<circle cx="539" cy="217" r="1.7" fill="#a78bfa" opacity="0.55"/>
<circle cx="553" cy="217" r="1.7" fill="#a78bfa" opacity="0.55"/>
<circle cx="567" cy="217" r="1.7" fill="#a78bfa" opacity="0.55"/>
<circle cx="665" cy="217" r="1.7" fill="#a78bfa" opacity="0.55"/>
<circle cx="679" cy="217" r="1.7" fill="#a78bfa" opacity="0.55"/>
<circle cx="693" cy="217" r="1.7" fill="#a78bfa" opacity="0.55"/>
<circle cx="707" cy="217" r="1.7" fill="#a78bfa" opacity="0.55"/>
<circle cx="721" cy="217" r="1.7" fill="#a78bfa" opacity="0.55"/>
<circle cx="735" cy="217" r="1.7" fill="#a78bfa" opacity="0.55"/>
<circle cx="273" cy="231" r="1.7" fill="#a78bfa" opacity="0.55"/>
<circle cx="287" cy="231" r="1.7" fill="#a78bfa" opacity="0.55"/>
<circle cx="301" cy="231" r="1.7" fill="#a78bfa" opacity="0.55"/>
<circle cx="315" cy="231" r="1.7" fill="#a78bfa" opacity="0.55"/>
<circle cx="329" cy="231" r="1.7" fill="#a78bfa" opacity="0.55"/>
<circle cx="343" cy="231" r="1.7" fill="#a78bfa" opacity="0.55"/>
<circle cx="357" cy="231" r="1.7" fill="#a78bfa" opacity="0.55"/>
<circle cx="469" cy="231" r="1.7" fill="#a78bfa" opacity="0.55"/>
<circle cx="483" cy="231" r="1.7" fill="#a78bfa" opacity="0.55"/>
<circle cx="497" cy="231" r="1.7" fill="#a78bfa" opacity="0.55"/>
<circle cx="511" cy="231" r="1.7" fill="#a78bfa" opacity="0.55"/>
<circle cx="525" cy="231" r="1.7" fill="#a78bfa" opacity="0.55"/>
<circle cx="539" cy="231" r="1.7" fill="#a78bfa" opacity="0.55"/>
<circle cx="553" cy="231" r="1.7" fill="#a78bfa" opacity="0.55"/>
<circle cx="567" cy="231" r="1.7" fill="#a78bfa" opacity="0.55"/>
<circle cx="679" cy="231" r="1.7" fill="#a78bfa" opacity="0.55"/>
<circle cx="693" cy="231" r="1.7" fill="#a78bfa" opacity="0.55"/>
<circle cx="707" cy="231" r="1.7" fill="#a78bfa" opacity="0.55"/>
<circle cx="721" cy="231" r="1.7" fill="#a78bfa" opacity="0.55"/>
<circle cx="735" cy="231" r="1.7" fill="#a78bfa" opacity="0.55"/>
<circle cx="287" cy="245" r="1.7" fill="#a78bfa" opacity="0.55"/>
<circle cx="301" cy="245" r="1.7" fill="#a78bfa" opacity="0.55"/>
<circle cx="315" cy="245" r="1.7" fill="#a78bfa" opacity="0.55"/>
<circle cx="329" cy="245" r="1.7" fill="#a78bfa" opacity="0.55"/>
<circle cx="343" cy="245" r="1.7" fill="#a78bfa" opacity="0.55"/>
<circle cx="357" cy="245" r="1.7" fill="#a78bfa" opacity="0.55"/>
<circle cx="469" cy="245" r="1.7" fill="#a78bfa" opacity="0.55"/>
<circle cx="483" cy="245" r="1.7" fill="#a78bfa" opacity="0.55"/>
<circle cx="497" cy="245" r="1.7" fill="#a78bfa" opacity="0.55"/>
<circle cx="511" cy="245" r="1.7" fill="#a78bfa" opacity="0.55"/>
<circle cx="525" cy="245" r="1.7" fill="#a78bfa" opacity="0.55"/>
<circle cx="539" cy="245" r="1.7" fill="#a78bfa" opacity="0.55"/>
<circle cx="553" cy="245" r="1.7" fill="#a78bfa" opacity="0.55"/>
<circle cx="581" cy="245" r="1.7" fill="#a78bfa" opacity="0.55"/>
<circle cx="301" cy="259" r="1.7" fill="#a78bfa" opacity="0.55"/>
<circle cx="315" cy="259" r="1.7" fill="#a78bfa" opacity="0.55"/>
<circle cx="329" cy="259" r="1.7" fill="#a78bfa" opacity="0.55"/>
<circle cx="343" cy="259" r="1.7" fill="#a78bfa" opacity="0.55"/>
<circle cx="357" cy="259" r="1.7" fill="#a78bfa" opacity="0.55"/>
<circle cx="483" cy="259" r="1.7" fill="#a78bfa" opacity="0.55"/>
<circle cx="497" cy="259" r="1.7" fill="#a78bfa" opacity="0.55"/>
<circle cx="511" cy="259" r="1.7" fill="#a78bfa" opacity="0.55"/>
<circle cx="525" cy="259" r="1.7" fill="#a78bfa" opacity="0.55"/>
<circle cx="539" cy="259" r="1.7" fill="#a78bfa" opacity="0.55"/>
<circle cx="581" cy="259" r="1.7" fill="#a78bfa" opacity="0.55"/>
<circle cx="735" cy="259" r="1.7" fill="#a78bfa" opacity="0.55"/>
<circle cx="749" cy="259" r="1.7" fill="#a78bfa" opacity="0.55"/>
<circle cx="763" cy="259" r="1.7" fill="#a78bfa" opacity="0.55"/>
<circle cx="777" cy="259" r="1.7" fill="#a78bfa" opacity="0.55"/>
<circle cx="791" cy="259" r="1.7" fill="#a78bfa" opacity="0.55"/>
<circle cx="301" cy="273" r="1.7" fill="#a78bfa" opacity="0.55"/>
<circle cx="315" cy="273" r="1.7" fill="#a78bfa" opacity="0.55"/>
<circle cx="329" cy="273" r="1.7" fill="#a78bfa" opacity="0.55"/>
<circle cx="343" cy="273" r="1.7" fill="#a78bfa" opacity="0.55"/>
<circle cx="483" cy="273" r="1.7" fill="#a78bfa" opacity="0.55"/>
<circle cx="497" cy="273" r="1.7" fill="#a78bfa" opacity="0.55"/>
<circle cx="511" cy="273" r="1.7" fill="#a78bfa" opacity="0.55"/>
<circle cx="525" cy="273" r="1.7" fill="#a78bfa" opacity="0.55"/>
<circle cx="721" cy="273" r="1.7" fill="#a78bfa" opacity="0.55"/>
<circle cx="735" cy="273" r="1.7" fill="#a78bfa" opacity="0.55"/>
<circle cx="749" cy="273" r="1.7" fill="#a78bfa" opacity="0.55"/>
<circle cx="763" cy="273" r="1.7" fill="#a78bfa" opacity="0.55"/>
<circle cx="777" cy="273" r="1.7" fill="#a78bfa" opacity="0.55"/>
<circle cx="791" cy="273" r="1.7" fill="#a78bfa" opacity="0.55"/>
<circle cx="805" cy="273" r="1.7" fill="#a78bfa" opacity="0.55"/>
<circle cx="301" cy="287" r="1.7" fill="#a78bfa" opacity="0.55"/>
<circle cx="315" cy="287" r="1.7" fill="#a78bfa" opacity="0.55"/>
<circle cx="329" cy="287" r="1.7" fill="#a78bfa" opacity="0.55"/>
<circle cx="343" cy="287" r="1.7" fill="#a78bfa" opacity="0.55"/>
<circle cx="497" cy="287" r="1.7" fill="#a78bfa" opacity="0.55"/>
<circle cx="511" cy="287" r="1.7" fill="#a78bfa" opacity="0.55"/>
<circle cx="721" cy="287" r="1.7" fill="#a78bfa" opacity="0.55"/>
<circle cx="735" cy="287" r="1.7" fill="#a78bfa" opacity="0.55"/>
<circle cx="749" cy="287" r="1.7" fill="#a78bfa" opacity="0.55"/>
<circle cx="763" cy="287" r="1.7" fill="#a78bfa" opacity="0.55"/>
<circle cx="777" cy="287" r="1.7" fill="#a78bfa" opacity="0.55"/>
<circle cx="791" cy="287" r="1.7" fill="#a78bfa" opacity="0.55"/>
<circle cx="301" cy="301" r="1.7" fill="#a78bfa" opacity="0.55"/>
<circle cx="315" cy="301" r="1.7" fill="#a78bfa" opacity="0.55"/>
<circle cx="329" cy="301" r="1.7" fill="#a78bfa" opacity="0.55"/>
<circle cx="735" cy="301" r="1.7" fill="#a78bfa" opacity="0.55"/>
<circle cx="749" cy="301" r="1.7" fill="#a78bfa" opacity="0.55"/>
<circle cx="763" cy="301" r="1.7" fill="#a78bfa" opacity="0.55"/>
<circle cx="777" cy="301" r="1.7" fill="#a78bfa" opacity="0.55"/>
<circle cx="819" cy="301" r="1.7" fill="#a78bfa" opacity="0.55"/>
<circle cx="833" cy="301" r="1.7" fill="#a78bfa" opacity="0.55"/>
<circle cx="301" cy="315" r="1.7" fill="#a78bfa" opacity="0.55"/>
<circle cx="315" cy="315" r="1.7" fill="#a78bfa" opacity="0.55"/>
<circle cx="819" cy="315" r="1.7" fill="#a78bfa" opacity="0.55"/>
<circle cx="833" cy="315" r="1.7" fill="#a78bfa" opacity="0.55"/>
<circle cx="301" cy="329" r="1.7" fill="#a78bfa" opacity="0.55"/>
</svg>